<mxfile host="app.diagrams.net" modified="2021-02-17T15:20:38.071Z" agent="5.0 (Windows NT 10.0; Win64; x64) AppleWebKit/537.36 (KHTML, like Gecko) Chrome/88.0.4324.150 Safari/537.36" etag="WCbZm4TCag-Zpl1k374y" version="14.3.2" type="github">
  <diagram id="rQhccvOxW-MgDgox2bf5" name="Page-1">
    <mxGraphModel dx="2062" dy="1949" grid="1" gridSize="10" guides="1" tooltips="1" connect="1" arrows="1" fold="1" page="1" pageScale="1" pageWidth="1169" pageHeight="827" math="0" shadow="0">
      <root>
        <mxCell id="0" />
        <mxCell id="1" parent="0" />
        <mxCell id="9OuG9oqcYKLen_dDnCQN-1" value="" style="verticalLabelPosition=bottom;html=1;verticalAlign=top;align=center;strokeColor=none;fillColor=#00BEF2;shape=mxgraph.azure.sql_database;" vertex="1" parent="1">
          <mxGeometry x="156.25" y="150" width="37.5" height="50" as="geometry" />
        </mxCell>
        <mxCell id="9OuG9oqcYKLen_dDnCQN-2" value="" style="verticalLabelPosition=bottom;html=1;verticalAlign=top;align=center;strokeColor=none;fillColor=#00BEF2;shape=mxgraph.azure.virtual_machine_feature;pointerEvents=1;" vertex="1" parent="1">
          <mxGeometry x="149" y="418.3" width="50" height="45" as="geometry" />
        </mxCell>
        <mxCell id="9OuG9oqcYKLen_dDnCQN-3" value="" style="aspect=fixed;html=1;points=[];align=center;image;fontSize=12;image=img/lib/azure2/iot/Logic_Apps.svg;" vertex="1" parent="1">
          <mxGeometry x="135.25" y="70" width="67" height="52" as="geometry" />
        </mxCell>
        <mxCell id="9OuG9oqcYKLen_dDnCQN-4" value="Azure HP" style="whiteSpace=wrap;html=1;aspect=fixed;strokeColor=#6c8ebf;fillColor=none;labelPosition=center;verticalLabelPosition=top;align=center;verticalAlign=bottom;fontColor=#007FFF;fontSize=24;" vertex="1" parent="1">
          <mxGeometry x="45" y="30" width="575" height="575" as="geometry" />
        </mxCell>
        <mxCell id="9OuG9oqcYKLen_dDnCQN-6" value="HP Cloud" style="whiteSpace=wrap;html=1;aspect=fixed;strokeColor=#6c8ebf;fillColor=none;labelPosition=center;verticalLabelPosition=top;align=center;verticalAlign=bottom;fontColor=#007FFF;fontSize=24;" vertex="1" parent="1">
          <mxGeometry x="320" y="700" width="410" height="410" as="geometry" />
        </mxCell>
        <mxCell id="9OuG9oqcYKLen_dDnCQN-7" value="AWS HP" style="whiteSpace=wrap;html=1;aspect=fixed;strokeColor=#6c8ebf;fillColor=none;labelPosition=center;verticalLabelPosition=top;align=center;verticalAlign=bottom;fontColor=#007FFF;fontSize=24;" vertex="1" parent="1">
          <mxGeometry x="970" y="470" width="460" height="460" as="geometry" />
        </mxCell>
        <mxCell id="9OuG9oqcYKLen_dDnCQN-9" value="" style="aspect=fixed;html=1;points=[];align=center;image;fontSize=12;image=img/lib/mscae/VirtualMachineWindows.svg;fillColor=none;" vertex="1" parent="1">
          <mxGeometry x="410" y="810" width="50" height="46" as="geometry" />
        </mxCell>
        <mxCell id="9OuG9oqcYKLen_dDnCQN-11" value="" style="outlineConnect=0;dashed=0;verticalLabelPosition=bottom;verticalAlign=top;align=center;html=1;shape=mxgraph.aws3.ec2;fillColor=#F58534;gradientColor=none;fontSize=24;fontColor=#007FFF;" vertex="1" parent="1">
          <mxGeometry x="1290" y="570" width="76.5" height="93" as="geometry" />
        </mxCell>
        <mxCell id="9OuG9oqcYKLen_dDnCQN-12" value="" style="outlineConnect=0;dashed=0;verticalLabelPosition=bottom;verticalAlign=top;align=center;html=1;shape=mxgraph.aws3.ec2;fillColor=#F58534;gradientColor=none;fontSize=24;fontColor=#007FFF;" vertex="1" parent="1">
          <mxGeometry x="1169" y="570" width="76.5" height="93" as="geometry" />
        </mxCell>
        <mxCell id="9OuG9oqcYKLen_dDnCQN-13" value="" style="outlineConnect=0;dashed=0;verticalLabelPosition=bottom;verticalAlign=top;align=center;html=1;shape=mxgraph.aws3.ec2;fillColor=#F58534;gradientColor=none;fontSize=24;fontColor=#007FFF;" vertex="1" parent="1">
          <mxGeometry x="1030" y="734" width="76.5" height="93" as="geometry" />
        </mxCell>
        <mxCell id="9OuG9oqcYKLen_dDnCQN-14" value="Microsoft Azure&lt;br&gt;" style="whiteSpace=wrap;html=1;aspect=fixed;strokeColor=#6c8ebf;fillColor=none;labelPosition=center;verticalLabelPosition=top;align=center;verticalAlign=bottom;fontColor=#007FFF;fontSize=24;" vertex="1" parent="1">
          <mxGeometry x="710" y="110" width="295" height="295" as="geometry" />
        </mxCell>
        <mxCell id="9OuG9oqcYKLen_dDnCQN-17" value="" style="verticalLabelPosition=bottom;aspect=fixed;html=1;verticalAlign=top;strokeColor=#000000;fillColor=#000000;align=center;outlineConnect=0;shape=mxgraph.fluid_power.x10690;points=[[0.5,0,0],[0.3,1,0],[0.7,1,0]];fontSize=24;fontColor=#007FFF;" vertex="1" parent="1">
          <mxGeometry x="800" y="160" width="92.78" height="112.16" as="geometry" />
        </mxCell>
        <mxCell id="9OuG9oqcYKLen_dDnCQN-18" value="" style="shape=image;html=1;verticalAlign=top;verticalLabelPosition=bottom;labelBackgroundColor=#ffffff;imageAspect=0;aspect=fixed;image=https://cdn4.iconfinder.com/data/icons/flat-brand-logo-2/512/hp-128.png;fillColor=none;fontSize=24;fontColor=#007FFF;" vertex="1" parent="1">
          <mxGeometry x="406" y="642" width="58" height="58" as="geometry" />
        </mxCell>
        <mxCell id="9OuG9oqcYKLen_dDnCQN-19" value="" style="dashed=0;outlineConnect=0;html=1;align=center;labelPosition=center;verticalLabelPosition=bottom;verticalAlign=top;shape=mxgraph.weblogos.aws;fillColor=none;fontSize=24;fontColor=#007FFF;" vertex="1" parent="1">
          <mxGeometry x="1280" y="411.6" width="63.6" height="58.400000000000006" as="geometry" />
        </mxCell>
        <mxCell id="9OuG9oqcYKLen_dDnCQN-20" value="" style="shape=image;html=1;verticalAlign=top;verticalLabelPosition=bottom;labelBackgroundColor=#ffffff;imageAspect=0;aspect=fixed;image=https://cdn3.iconfinder.com/data/icons/logos-brands-3/24/logo_brand_brands_logos_microsoft_store_windows-128.png;fillColor=none;fontSize=24;fontColor=#007FFF;" vertex="1" parent="1">
          <mxGeometry x="950" y="20" width="78" height="78" as="geometry" />
        </mxCell>
        <mxCell id="9OuG9oqcYKLen_dDnCQN-21" value="" style="shape=image;html=1;verticalAlign=top;verticalLabelPosition=bottom;labelBackgroundColor=#ffffff;imageAspect=0;aspect=fixed;image=https://cdn3.iconfinder.com/data/icons/logos-brands-3/24/logo_brand_brands_logos_microsoft_store_windows-128.png;fillColor=none;fontSize=24;fontColor=#007FFF;" vertex="1" parent="1">
          <mxGeometry x="50" y="-60" width="78" height="78" as="geometry" />
        </mxCell>
        <mxCell id="9OuG9oqcYKLen_dDnCQN-22" value="" style="shape=image;html=1;verticalAlign=top;verticalLabelPosition=bottom;labelBackgroundColor=#ffffff;imageAspect=0;aspect=fixed;image=https://cdn4.iconfinder.com/data/icons/flat-brand-logo-2/512/hp-128.png;fillColor=none;fontSize=24;fontColor=#007FFF;" vertex="1" parent="1">
          <mxGeometry x="146" y="-50" width="58" height="58" as="geometry" />
        </mxCell>
        <mxCell id="9OuG9oqcYKLen_dDnCQN-23" value="" style="shape=image;html=1;verticalAlign=top;verticalLabelPosition=bottom;labelBackgroundColor=#ffffff;imageAspect=0;aspect=fixed;image=https://cdn4.iconfinder.com/data/icons/flat-brand-logo-2/512/hp-128.png;fillColor=none;fontSize=24;fontColor=#007FFF;" vertex="1" parent="1">
          <mxGeometry x="1350" y="412" width="58" height="58" as="geometry" />
        </mxCell>
        <mxCell id="9OuG9oqcYKLen_dDnCQN-24" value="g7w05562a.inc.hpicorp.net&lt;br&gt;GW Power BI" style="text;html=1;resizable=0;autosize=1;align=center;verticalAlign=middle;points=[];fillColor=none;strokeColor=none;rounded=0;fontSize=24;fontColor=#007FFF;" vertex="1" parent="1">
          <mxGeometry x="360" y="865" width="300" height="60" as="geometry" />
        </mxCell>
        <mxCell id="9OuG9oqcYKLen_dDnCQN-26" value="RDP to acces to DDBB&lt;br&gt;Dynamic IP" style="text;html=1;resizable=0;autosize=1;align=center;verticalAlign=middle;points=[];fillColor=none;strokeColor=none;rounded=0;fontSize=24;fontColor=#007FFF;" vertex="1" parent="1">
          <mxGeometry x="230" y="414" width="260" height="60" as="geometry" />
        </mxCell>
        <mxCell id="9OuG9oqcYKLen_dDnCQN-29" value="" style="verticalLabelPosition=bottom;html=1;verticalAlign=top;align=center;strokeColor=none;fillColor=#00BEF2;shape=mxgraph.azure.sql_database;" vertex="1" parent="1">
          <mxGeometry x="156.25" y="240" width="37.5" height="50" as="geometry" />
        </mxCell>
        <mxCell id="9OuG9oqcYKLen_dDnCQN-30" value="LogicApps (Sincro)" style="text;html=1;resizable=0;autosize=1;align=center;verticalAlign=middle;points=[];fillColor=none;strokeColor=none;rounded=0;fontSize=24;fontColor=#007FFF;" vertex="1" parent="1">
          <mxGeometry x="230" y="80" width="220" height="30" as="geometry" />
        </mxCell>
        <mxCell id="9OuG9oqcYKLen_dDnCQN-31" value="GSS-Travel-Dev" style="text;html=1;resizable=0;autosize=1;align=center;verticalAlign=middle;points=[];fillColor=none;strokeColor=none;rounded=0;fontSize=24;fontColor=#007FFF;" vertex="1" parent="1">
          <mxGeometry x="230" y="160" width="190" height="30" as="geometry" />
        </mxCell>
        <mxCell id="9OuG9oqcYKLen_dDnCQN-32" value="Email-PowerApps (flows, LogicApps)" style="text;html=1;resizable=0;autosize=1;align=center;verticalAlign=middle;points=[];fillColor=none;strokeColor=none;rounded=0;fontSize=24;fontColor=#007FFF;" vertex="1" parent="1">
          <mxGeometry x="199" y="260" width="410" height="30" as="geometry" />
        </mxCell>
        <mxCell id="9OuG9oqcYKLen_dDnCQN-33" value="bcn-windows.hpicloud.net&lt;br&gt;GW Power BI" style="text;html=1;resizable=0;autosize=1;align=center;verticalAlign=middle;points=[];fillColor=none;strokeColor=none;rounded=0;fontSize=24;fontColor=#007FFF;" vertex="1" parent="1">
          <mxGeometry x="1126.5" y="740" width="290" height="60" as="geometry" />
        </mxCell>
        <mxCell id="9OuG9oqcYKLen_dDnCQN-34" value="" style="outlineConnect=0;dashed=0;verticalLabelPosition=bottom;verticalAlign=top;align=center;html=1;shape=mxgraph.aws3.customer_gateway;fillColor=#F58534;gradientColor=none;fontSize=24;fontColor=#007FFF;" vertex="1" parent="1">
          <mxGeometry x="149" y="322.5" width="60" height="60" as="geometry" />
        </mxCell>
        <mxCell id="9OuG9oqcYKLen_dDnCQN-35" value="Azure Gateway (Rules)" style="text;html=1;resizable=0;autosize=1;align=center;verticalAlign=middle;points=[];fillColor=none;strokeColor=none;rounded=0;fontSize=24;fontColor=#007FFF;" vertex="1" parent="1">
          <mxGeometry x="230" y="322.5" width="260" height="30" as="geometry" />
        </mxCell>
      </root>
    </mxGraphModel>
  </diagram>
</mxfile>
